<?xml version="1.0" standalone="no"?>
<!DOCTYPE svg PUBLIC "-//W3C//DTD SVG 20010904//EN"
 "http://www.w3.org/TR/2001/REC-SVG-20010904/DTD/svg10.dtd">
<svg version="1.0" xmlns="http://www.w3.org/2000/svg"
 width="360.000000pt" height="360.000000pt" viewBox="0 0 360.000000 360.000000"
 preserveAspectRatio="xMidYMid meet">

<g transform="translate(0.000000,360.000000) scale(0.100000,-0.100000)"
fill="#000000" stroke="none">
<path d="M2330 2694 c0 -125 -47 -288 -131 -455 -48 -97 -79 -149 -252 -431
-138 -225 -192 -338 -222 -468 -38 -164 -1 -318 103 -439 l37 -43 2 82 c3 167
74 319 320 688 257 385 320 535 311 737 -7 133 -48 236 -143 350 l-25 30 0
-51z"/>
<path d="M1100 2345 c0 -10 10 -15 34 -15 30 0 43 -10 101 -72 121 -131 261
-331 406 -582 24 -42 46 -76 49 -76 5 0 140 261 140 272 0 3 -29 49 -65 102
-155 226 -180 356 -68 356 23 0 33 5 33 15 0 13 -42 15 -315 15 -273 0 -315
-2 -315 -15z"/>
</g>
</svg>
